<?xml version="1.0" standalone="no"?>
<svg xmlns:xlink="http://www.w3.org/1999/xlink" id="wave" style="transform:rotate(0deg); transition: 0.3s" viewBox="0 0 1440 360" version="1.1" xmlns="http://www.w3.org/2000/svg"><defs><linearGradient id="sw-gradient-0" x1="0" x2="0" y1="1" y2="0"><stop stop-color="rgba(243, 106, 62, 1)" offset="0%"/><stop stop-color="rgba(255, 179, 11, 1)" offset="100%"/></linearGradient></defs><path style="transform:translate(0, 0px); opacity:1" fill="url(#sw-gradient-0)" d="M0,108L48,96C96,84,192,60,288,84C384,108,480,180,576,210C672,240,768,228,864,204C960,180,1056,144,1152,114C1248,84,1344,60,1440,54C1536,48,1632,60,1728,96C1824,132,1920,192,2016,204C2112,216,2208,180,2304,180C2400,180,2496,216,2592,234C2688,252,2784,252,2880,222C2976,192,3072,132,3168,126C3264,120,3360,168,3456,198C3552,228,3648,240,3744,210C3840,180,3936,108,4032,114C4128,120,4224,204,4320,246C4416,288,4512,288,4608,264C4704,240,4800,192,4896,150C4992,108,5088,72,5184,48C5280,24,5376,12,5472,30C5568,48,5664,96,5760,120C5856,144,5952,144,6048,156C6144,168,6240,192,6336,192C6432,192,6528,168,6624,156C6720,144,6816,144,6864,144L6912,144L6912,360L6864,360C6816,360,6720,360,6624,360C6528,360,6432,360,6336,360C6240,360,6144,360,6048,360C5952,360,5856,360,5760,360C5664,360,5568,360,5472,360C5376,360,5280,360,5184,360C5088,360,4992,360,4896,360C4800,360,4704,360,4608,360C4512,360,4416,360,4320,360C4224,360,4128,360,4032,360C3936,360,3840,360,3744,360C3648,360,3552,360,3456,360C3360,360,3264,360,3168,360C3072,360,2976,360,2880,360C2784,360,2688,360,2592,360C2496,360,2400,360,2304,360C2208,360,2112,360,2016,360C1920,360,1824,360,1728,360C1632,360,1536,360,1440,360C1344,360,1248,360,1152,360C1056,360,960,360,864,360C768,360,672,360,576,360C480,360,384,360,288,360C192,360,96,360,48,360L0,360Z"/></svg>